<?xml version="1.0" encoding="UTF-8"?>
<svg width="81px" height="12px" viewBox="0 0 81 12" version="1.1" xmlns="http://www.w3.org/2000/svg" xmlns:xlink="http://www.w3.org/1999/xlink">
    <!-- Generator: Sketch 52.6 (67491) - http://www.bohemiancoding.com/sketch -->
    <title>Icon / Logo / Longhand</title>
    <desc>Created with Sketch.</desc>
    <g id="Symbols" stroke="none" stroke-width="1" fill="none" fill-rule="evenodd">
        <g id="Components-/-Small-VP-/-Nav" transform="translate(-24.000000, -24.000000)" fill="#000000">
            <g id="Nav">
                <g id="Icon-/-Logo-/-Shorthand-/-Horiz" transform="translate(24.000000, 24.000000)">
                    <path d="M81,12 L79.1484323,12 L72.0599602,3.31709717 L72.0505826,12 L70,12 L70,0 L71.8515677,0 L78.9483755,8.68191882 L78.9483755,0 L81,0 L81,12 Z M40,6.5 C40,7.32783019 39.3290094,8 38.5,8 C37.6721698,8 37,7.32783019 37,6.5 C37,5.67216981 37.6721698,5 38.5,5 C39.3290094,5 40,5.67216981 40,6.5 Z M4.83540373,-3.19744231e-14 C7.53887342,-3.19744231e-14 9,1.23394834 9,3.47158672 C9,5.51143911 7.47140715,6.86543665 5.07924609,6.95104551 L8.9489184,12 L6.5982009,12 L2.85382309,6.95104551 L1.8967659,6.95104551 L1.8967659,12 L7.81597009e-14,12 L7.81597009e-14,-3.19744231e-14 L4.83540373,-3.19744231e-14 Z M1.8967659,1.81746617 L1.8967659,5.19458795 L4.78528593,5.19458795 C6.31291497,5.19458795 7.02612979,4.62779828 7.02612979,3.47158672 C7.02612979,2.33111931 6.27147141,1.81746617 4.78528593,1.81746617 L1.8967659,1.81746617 Z" id="Logo"></path>
                </g>
            </g>
        </g>
    </g>
</svg>